<svg fill="#ffffff" xmlns="http://www.w3.org/2000/svg" width="221.634px" height="81.425px" viewBox="0 0 221.634 81.425">
	<path d="M58.604,21.967c-0.252,0-0.503-0.061-0.724-0.188c-6.027-3.107-11.239-4.427-17.487-4.427 c-6.216,0-12.117,1.476-17.485,4.427c-0.753,0.407-1.695,0.127-2.135-0.629c-0.408-0.754-0.125-1.726,0.628-2.134 c5.839-3.171,12.243-4.804,18.992-4.804c6.689,0,12.526,1.475,18.931,4.771c0.785,0.407,1.067,1.351,0.659,2.104 C59.701,21.654,59.168,21.967,58.604,21.967z M13.679,38.449c-0.314,0-0.628-0.095-0.91-0.281c-0.722-0.504-0.878-1.475-0.377-2.197 c3.109-4.395,7.064-7.848,11.773-10.266c9.857-5.086,22.478-5.116,32.367-0.032c4.709,2.417,8.664,5.839,11.772,10.203 c0.503,0.69,0.344,1.694-0.38,2.198c-0.721,0.5-1.692,0.345-2.195-0.377c-2.826-3.957-6.404-7.063-10.644-9.229 c-9.008-4.615-20.53-4.615-29.508,0.03c-4.269,2.197-7.849,5.338-10.674,9.291C14.652,38.229,14.182,38.449,13.679,38.449z M33.3,76.341c-0.408,0-0.815-0.156-1.1-0.47c-2.731-2.733-4.206-4.49-6.309-8.289c-2.166-3.862-3.298-8.571-3.298-13.624 c0-9.324,7.975-16.921,17.77-16.921c9.795,0,17.769,7.597,17.769,16.921c0,0.877-0.692,1.569-1.569,1.569 c-0.88,0-1.57-0.692-1.57-1.569c0-7.597-6.561-13.782-14.629-13.782c-8.067,0-14.63,6.186-14.63,13.782 c0,4.519,1.006,8.694,2.92,12.085c2.01,3.611,3.391,5.15,5.809,7.597c0.596,0.629,0.596,1.601,0,2.231 C34.115,76.185,33.707,76.341,33.3,76.341z M55.808,70.531c-3.733,0-7.032-0.938-9.73-2.793c-4.678-3.17-7.473-8.316-7.473-13.779 c0-0.881,0.691-1.569,1.57-1.569c0.88,0,1.569,0.688,1.569,1.569c0,4.427,2.261,8.603,6.09,11.175 c2.229,1.508,4.835,2.229,7.974,2.229c0.755,0,2.012-0.093,3.266-0.312c0.849-0.156,1.664,0.407,1.821,1.287 c0.156,0.847-0.408,1.662-1.288,1.82C57.819,70.501,56.249,70.531,55.808,70.531z M49.499,77c-0.126,0-0.282-0.03-0.411-0.062 c-4.991-1.383-8.255-3.234-11.676-6.594C33.017,65.98,30.6,60.174,30.6,53.957c0-5.086,4.331-9.23,9.669-9.23 c5.336,0,9.668,4.145,9.668,9.23c0,3.359,2.921,6.089,6.529,6.089c3.608,0,6.53-2.729,6.53-6.089 c0-11.836-10.203-21.441-22.76-21.441c-8.915,0-17.078,4.96-20.751,12.65c-1.225,2.543-1.853,5.525-1.853,8.791 c0,2.445,0.221,6.31,2.104,11.33c0.312,0.818-0.096,1.729-0.91,2.012c-0.817,0.312-1.729-0.125-2.01-0.91 c-1.539-4.111-2.292-8.195-2.292-12.432c0-3.769,0.722-7.189,2.136-10.172c4.174-8.76,13.436-14.441,23.575-14.441 c14.283,0,25.899,11.02,25.899,24.583c0,5.083-4.332,9.228-9.67,9.228c-5.337,0-9.669-4.145-9.669-9.228 c0-3.36-2.919-6.092-6.528-6.092c-3.611,0-6.53,2.731-6.53,6.092c0,5.364,2.071,10.39,5.869,14.157 c2.983,2.949,5.841,4.583,10.265,5.807c0.849,0.221,1.321,1.098,1.101,1.916C50.817,76.529,50.158,77,49.499,77z"/>
	<path d="M101.998,61.624c-2.698,1.565-5.324,2.349-7.877,2.349c-4.216,0-7.636-1.692-10.262-5.076 c-2.626-3.385-3.938-7.57-3.938-12.557c0-5.131,1.367-9.479,4.101-13.044c2.734-3.564,6.269-5.348,10.605-5.348 c2.409,0,4.866,0.727,7.371,2.179v5.048c-2.433-1.975-4.782-2.963-7.046-2.963c-2.939,0-5.408,1.313-7.407,3.938 c-2,2.626-2.999,5.926-2.999,9.9c0,3.613,0.903,6.793,2.71,9.539s4.239,4.119,7.299,4.119c2.24,0,4.721-0.987,7.443-2.963V61.624z"/>
	<path d="M108.719,31.056c3.686-2.071,6.781-3.107,9.286-3.107c3.613,0,6.347,1.049,8.202,3.146 c1.854,2.123,2.782,4.969,2.782,8.537v18.196c0,1.326,0.626,1.989,1.879,1.989c0.65,0,1.301-0.181,1.951-0.542v3.902 c-1.156,0.529-2.337,0.795-3.541,0.795c-3.132,0-4.745-1.844-4.842-5.531c-1.181,1.832-2.493,3.211-3.938,4.14 c-1.445,0.928-3.012,1.392-4.697,1.392c-2.746,0-5.047-0.999-6.901-2.999c-1.855-1.999-2.782-4.444-2.782-7.335 c0-3.059,1.15-5.601,3.451-7.624c2.3-2.023,7.256-3.396,14.869-4.119v-2.963c0-1.951-0.632-3.56-1.897-4.823 c-1.264-1.266-2.836-1.897-4.715-1.897c-2.674,0-5.709,1.337-9.105,4.011V31.056z M124.437,45.4 c-5.935,0.725-9.688,1.745-11.262,3.062c-1.574,1.315-2.36,2.988-2.36,5.017c0,1.835,0.577,3.351,1.73,4.546 c1.153,1.195,2.606,1.793,4.36,1.793c2.186,0,3.988-0.917,5.406-2.753c1.417-1.835,2.126-4.189,2.126-7.063V45.4z"/>
	<path d="M155.908,28.743h4.553v34.435h-4.553v-4.733c-1.274,1.831-2.669,3.21-4.184,4.138 c-1.515,0.927-3.148,1.391-4.904,1.391c-2.934,0-5.223-0.999-6.869-2.999c-1.647-1.999-2.471-4.673-2.471-8.021V28.743h4.48v24.209 c0,2.289,0.48,4.005,1.441,5.149c0.961,1.144,2.402,1.716,4.325,1.716c2.402,0,4.366-1.018,5.892-3.054 c1.525-2.035,2.289-4.654,2.289-7.858V28.743z"/>
	<path d="M167.073,55.698c3.372,2.746,6.588,4.119,9.647,4.119c2.36,0,4.312-0.598,5.854-1.794 c1.541-1.196,2.312-2.713,2.312-4.55c0-1.329-0.512-2.441-1.535-3.335c-1.024-0.895-3.006-1.775-5.944-2.643 c-3.613-1.084-6.251-2.324-7.913-3.722c-1.662-1.396-2.493-3.336-2.493-5.817c0-2.842,1.12-5.221,3.36-7.137 c2.24-1.914,5.01-2.872,8.311-2.872c2.649,0,5.66,0.936,9.033,2.806v5.107c-2.867-2.505-5.806-3.758-8.816-3.758 c-2.072,0-3.775,0.556-5.113,1.668c-1.336,1.112-2.005,2.454-2.005,4.025c0,1.329,0.603,2.417,1.807,3.263 c1.181,0.871,3.144,1.691,5.89,2.463c6.744,1.879,10.117,5.083,10.117,9.611c0,3.059-1.234,5.631-3.703,7.714 c-2.47,2.083-5.463,3.125-8.979,3.125c-3.252,0-6.528-1.048-9.828-3.144V55.698z"/>
	<path d="M218.346,59.564c-3.667,2.939-7.249,4.408-10.747,4.408c-4.101,0-7.419-1.645-9.951-4.932 c-2.534-3.289-3.8-7.57-3.8-12.846c0-5.443,1.307-9.846,3.92-13.207c2.613-3.359,5.92-5.04,9.919-5.04 c3.541,0,6.384,1.354,8.527,4.065c2.144,2.709,3.216,6.137,3.216,10.279v2.24h-20.885v1.771c0,4.48,0.934,7.865,2.801,10.153 c1.866,2.289,4.053,3.433,6.558,3.433c3.469,0,6.949-1.915,10.442-5.745V59.564z M214.588,40.667 c-0.096-2.854-0.83-4.995-2.199-6.423c-1.37-1.427-2.969-2.141-4.794-2.141c-1.851,0-3.575,0.714-5.173,2.141 c-1.6,1.428-2.734,3.568-3.407,6.423H214.588z"/>
</svg>
